{
  "accessors": [
    {
      "bufferView": 2,
      "componentType": 5126,
      "count": 65534,
      "max": [
        0.49368199706077576,
        1.0000001192092896,
        1.283771276473999
      ],
      "min": [
        -0.4960309863090515,
        -1.0,
        -1.2526512145996094
      ],
      "type": "VEC3"
    },
    {
      "bufferView": 2,
      "byteOffset": 786408,
      "componentType": 5126,
      "count": 65534,
      "max": [
        1.0,
        1.0,
        0.9999986886978149
      ],
      "min": [
        -1.0,
        -0.9999998807907104,
        -0.9999954104423523
      ],
      "type": "VEC3"
    },
    {
      "bufferView": 1,
      "componentType": 5126,
      "count": 65534,
      "max": [
        0.987999677658081,
        0.9886588454246521
      ],
      "min": [
        0.021286915987730026,
        0.000207205637707375
      ],
      "type": "VEC2"
    },
    {
      "bufferView": 0,
      "componentType": 5125,
      "count": 99051,
      "type": "SCALAR"
    },
    {
      "bufferView": 2,
      "byteOffset": 1572816,
      "componentType": 5126,
      "count": 65532,
      "max": [
        0.4960309565067291,
        1.0000001192092896,
        1.283771276473999
      ],
      "min": [
        -0.4960309863090515,
        -1.0,
        -1.283771276473999
      ],
      "type": "VEC3"
    },
    {
      "bufferView": 2,
      "byteOffset": 2359200,
      "componentType": 5126,
      "count": 65532,
      "max": [
        0.9999942779541016,
        1.0,
        0.9999986886978149
      ],
      "min": [
        -0.9999942779541016,
        -0.9999998211860657,
        -0.9999987483024597
      ],
      "type": "VEC3"
    },
    {
      "bufferView": 1,
      "byteOffset": 524272,
      "componentType": 5126,
      "count": 65532,
      "max": [
        0.985419750213623,
        0.9997928738594055
      ],
      "min": [
        0.00020721556211356074,
        0.009834624826908112
      ],
      "type": "VEC2"
    },
    {
      "bufferView": 0,
      "byteOffset": 396204,
      "componentType": 5125,
      "count": 99588,
      "type": "SCALAR"
    },
    {
      "bufferView": 2,
      "byteOffset": 3145584,
      "componentType": 5126,
      "count": 13984,
      "max": [
        0.12766750156879425,
        1.0000001192092896,
        1.2526510953903198
      ],
      "min": [
        -0.12766750156879425,
        0.9791666865348816,
        -1.2526512145996094
      ],
      "type": "VEC3"
    },
    {
      "bufferView": 2,
      "byteOffset": 3313392,
      "componentType": 5126,
      "count": 13984,
      "max": [
        0.888063371181488,
        1.0,
        0.9867639541625977
      ],
      "min": [
        -0.888063371181488,
        0.1621551662683487,
        -0.9867631196975708
      ],
      "type": "VEC3"
    },
    {
      "bufferView": 1,
      "byteOffset": 1048528,
      "componentType": 5126,
      "count": 13984,
      "max": [
        0.987999677658081,
        0.5313882827758789
      ],
      "min": [
        0.9380507469177246,
        0.000207205637707375
      ],
      "type": "VEC2"
    },
    {
      "bufferView": 0,
      "byteOffset": 794556,
      "componentType": 5125,
      "count": 22545,
      "type": "SCALAR"
    },
    {
      "bufferView": 2,
      "byteOffset": 3481200,
      "componentType": 5126,
      "count": 16384,
      "max": [
        0.061661187559366226,
        0.9952789545059204,
        1.1724681854248047
      ],
      "min": [
        -0.061661187559366226,
        0.9951266050338745,
        -1.1724681854248047
      ],
      "type": "VEC3"
    },
    {
      "bufferView": 2,
      "byteOffset": 3677808,
      "componentType": 5126,
      "count": 16384,
      "max": [
        0.18601180613040924,
        1.0,
        0.00977599248290062
      ],
      "min": [
        -0.1858840435743332,
        0.982498824596405,
        -0.009782545268535614
      ],
      "type": "VEC3"
    },
    {
      "bufferView": 1,
      "byteOffset": 1160400,
      "componentType": 5126,
      "count": 16384,
      "max": [
        0.9761080741882324,
        0.5144797563552856
      ],
      "min": [
        0.9499512314796448,
        0.01711631566286087
      ],
      "type": "VEC2"
    },
    {
      "bufferView": 0,
      "byteOffset": 884736,
      "componentType": 5125,
      "count": 24576,
      "type": "SCALAR"
    },
    {
      "bufferView": 2,
      "byteOffset": 3874416,
      "componentType": 5126,
      "count": 224,
      "max": [
        0.27233943343162537,
        1.2085274457931519,
        0.30161917209625244
      ],
      "min": [
        -0.27233943343162537,
        0.748237669467926,
        -0.30161917209625244
      ],
      "type": "VEC3"
    },
    {
      "bufferView": 2,
      "byteOffset": 3877104,
      "componentType": 5126,
      "count": 224,
      "max": [
        0.99051433801651,
        0.9039466381072998,
        0.9909216165542603
      ],
      "min": [
        -0.99051433801651,
        -0.9896403551101685,
        -0.9909216165542603
      ],
      "type": "VEC3"
    },
    {
      "bufferView": 1,
      "byteOffset": 1291472,
      "componentType": 5126,
      "count": 224,
      "max": [
        0.14436140656471252,
        0.9999619722366333
      ],
      "min": [
        3.798848047154024e-05,
        3.798848047154024e-05
      ],
      "type": "VEC2"
    },
    {
      "bufferView": 0,
      "byteOffset": 983040,
      "componentType": 5125,
      "count": 336,
      "type": "SCALAR"
    },
    {
      "bufferView": 2,
      "byteOffset": 3879792,
      "componentType": 5126,
      "count": 4096,
      "max": [
        0.2206154316663742,
        1.6692655086517334,
        0.45033976435661316
      ],
      "min": [
        -0.2206154316663742,
        0.7809156179428101,
        -0.45033976435661316
      ],
      "type": "VEC3"
    },
    {
      "bufferView": 2,
      "byteOffset": 3928944,
      "componentType": 5126,
      "count": 4096,
      "max": [
        0.9982381463050842,
        0.7277646064758301,
        0.604837954044342
      ],
      "min": [
        -0.9982381463050842,
        -0.7277660369873047,
        -0.604839026927948
      ],
      "type": "VEC3"
    },
    {
      "bufferView": 1,
      "byteOffset": 1293264,
      "componentType": 5126,
      "count": 4096,
      "max": [
        1.0000001192092896,
        1.0000001192092896
      ],
      "min": [
        0.0,
        0.5000000596046448
      ],
      "type": "VEC2"
    },
    {
      "bufferView": 0,
      "byteOffset": 984384,
      "componentType": 5125,
      "count": 6144,
      "type": "SCALAR"
    },
    {
      "bufferView": 2,
      "byteOffset": 3978096,
      "componentType": 5126,
      "count": 2816,
      "max": [
        0.31082990765571594,
        0.9010685682296753,
        0.3417740762233734
      ],
      "min": [
        -0.31082990765571594,
        0.6672394871711731,
        -0.3417740762233734
      ],
      "type": "VEC3"
    },
    {
      "bufferView": 2,
      "byteOffset": 4011888,
      "componentType": 5126,
      "count": 2816,
      "max": [
        0.9886144995689392,
        0.9838539958000183,
        0.9951848983764648
      ],
      "min": [
        -0.9886144995689392,
        -0.9838540554046631,
        -0.9951848983764648
      ],
      "type": "VEC3"
    },
    {
      "bufferView": 1,
      "byteOffset": 1326032,
      "componentType": 5126,
      "count": 2816,
      "max": [
        1.0,
        0.5
      ],
      "min": [
        0.0,
        0.0
      ],
      "type": "VEC2"
    },
    {
      "bufferView": 0,
      "byteOffset": 1008960,
      "componentType": 5125,
      "count": 4560,
      "type": "SCALAR"
    }
  ],
  "asset": {
    "extras": {
      "author": "Red Render (https://sketchfab.com/redrender)",
      "license": "CC-BY-4.0 (http://creativecommons.org/licenses/by/4.0/)",
      "source": "https://sketchfab.com/3d-models/native-bag-sample-ac44161e5558465b819f1be45eba70ac",
      "title": "Native Bag Sample"
    },
    "generator": "Sketchfab-12.68.0",
    "version": "2.0"
  },
  "bufferViews": [
    {
      "buffer": 0,
      "byteLength": 1027200,
      "name": "floatBufferViews",
      "target": 34963
    },
    {
      "buffer": 0,
      "byteLength": 1348560,
      "byteOffset": 1027200,
      "byteStride": 8,
      "name": "floatBufferViews",
      "target": 34962
    },
    {
      "buffer": 0,
      "byteLength": 4045680,
      "byteOffset": 2375760,
      "byteStride": 12,
      "name": "floatBufferViews",
      "target": 34962
    }
  ],
  "buffers": [
    {
      "byteLength": 6421440,
      "uri": "scene.bin"
    }
  ],
  "images": [
    {
      "uri": "textures/material_baseColor.png"
    },
    {
      "uri": "textures/Handle_baseColor.jpeg"
    },
    {
      "uri": "textures/Strap_baseColor.jpeg"
    }
  ],
  "materials": [
    {
      "doubleSided": true,
      "name": "material",
      "pbrMetallicRoughness": {
        "baseColorTexture": {
          "index": 0
        },
        "metallicFactor": 0.0,
        "roughnessFactor": 0.5
      }
    },
    {
      "doubleSided": true,
      "name": "Handle",
      "pbrMetallicRoughness": {
        "baseColorTexture": {
          "index": 1
        },
        "metallicFactor": 0.276243,
        "roughnessFactor": 0.190608
      }
    },
    {
      "doubleSided": true,
      "name": "Strap",
      "pbrMetallicRoughness": {
        "baseColorTexture": {
          "index": 2
        },
        "metallicFactor": 0.265193,
        "roughnessFactor": 0.5
      }
    }
  ],
  "meshes": [
    {
      "name": "Object_0",
      "primitives": [
        {
          "attributes": {
            "NORMAL": 1,
            "POSITION": 0,
            "TEXCOORD_0": 2
          },
          "indices": 3,
          "material": 0,
          "mode": 4
        }
      ]
    },
    {
      "name": "Object_1",
      "primitives": [
        {
          "attributes": {
            "NORMAL": 5,
            "POSITION": 4,
            "TEXCOORD_0": 6
          },
          "indices": 7,
          "material": 0,
          "mode": 4
        }
      ]
    },
    {
      "name": "Object_2",
      "primitives": [
        {
          "attributes": {
            "NORMAL": 9,
            "POSITION": 8,
            "TEXCOORD_0": 10
          },
          "indices": 11,
          "material": 0,
          "mode": 4
        }
      ]
    },
    {
      "name": "Object_3",
      "primitives": [
        {
          "attributes": {
            "NORMAL": 13,
            "POSITION": 12,
            "TEXCOORD_0": 14
          },
          "indices": 15,
          "material": 1,
          "mode": 4
        }
      ]
    },
    {
      "name": "Object_4",
      "primitives": [
        {
          "attributes": {
            "NORMAL": 17,
            "POSITION": 16,
            "TEXCOORD_0": 18
          },
          "indices": 19,
          "material": 2,
          "mode": 4
        }
      ]
    },
    {
      "name": "Object_5",
      "primitives": [
        {
          "attributes": {
            "NORMAL": 21,
            "POSITION": 20,
            "TEXCOORD_0": 22
          },
          "indices": 23,
          "material": 1,
          "mode": 4
        }
      ]
    },
    {
      "name": "Object_6",
      "primitives": [
        {
          "attributes": {
            "NORMAL": 25,
            "POSITION": 24,
            "TEXCOORD_0": 26
          },
          "indices": 27,
          "material": 1,
          "mode": 4
        }
      ]
    }
  ],
  "nodes": [
    {
      "children": [
        1
      ],
      "matrix": [
        1.0,
        0.0,
        0.0,
        0.0,
        0.0,
        2.220446049250313e-16,
        -1.0,
        0.0,
        0.0,
        1.0,
        2.220446049250313e-16,
        0.0,
        0.0,
        0.0,
        0.0,
        1.0
      ],
      "name": "Sketchfab_model"
    },
    {
      "children": [
        2
      ],
      "name": "root"
    },
    {
      "children": [
        3,
        8,
        10,
        12
      ],
      "matrix": [
        1.0,
        0.0,
        0.0,
        0.0,
        0.0,
        2.220446049250313e-16,
        1.0,
        0.0,
        0.0,
        -1.0,
        2.220446049250313e-16,
        0.0,
        0.0,
        0.0,
        0.0,
        1.0
      ],
      "name": "GLTF_SceneRootNode"
    },
    {
      "children": [
        4,
        5,
        6,
        7
      ],
      "name": "Cube_2"
    },
    {
      "mesh": 0,
      "name": "Object_4"
    },
    {
      "mesh": 1,
      "name": "Object_5"
    },
    {
      "mesh": 2,
      "name": "Object_6"
    },
    {
      "mesh": 3,
      "name": "Object_7"
    },
    {
      "children": [
        9
      ],
      "name": "Cube.001_3"
    },
    {
      "mesh": 4,
      "name": "Object_9"
    },
    {
      "children": [
        11
      ],
      "matrix": [
        1.0,
        0.0,
        0.0,
        0.0,
        0.0,
        1.0,
        0.0,
        0.0,
        0.0,
        0.0,
        1.0,
        0.0,
        0.0,
        0.24421441555023193,
        0.0,
        1.0
      ],
      "name": "Cylinder_4"
    },
    {
      "mesh": 5,
      "name": "Object_11"
    },
    {
      "children": [
        13
      ],
      "name": "Cylinder.001_5"
    },
    {
      "mesh": 6,
      "name": "Object_13"
    }
  ],
  "samplers": [
    {
      "magFilter": 9729,
      "minFilter": 9987,
      "wrapS": 10497,
      "wrapT": 10497
    }
  ],
  "scene": 0,
  "scenes": [
    {
      "name": "Sketchfab_Scene",
      "nodes": [
        0
      ]
    }
  ],
  "textures": [
    {
      "sampler": 0,
      "source": 0
    },
    {
      "sampler": 0,
      "source": 1
    },
    {
      "sampler": 0,
      "source": 2
    }
  ]
}
